<?xml version="1.0" encoding="UTF-8"?>
<!--Generator: Apple Native CoreSVG 175-->
<!DOCTYPE svg
PUBLIC "-//W3C//DTD SVG 1.1//EN"
       "http://www.w3.org/Graphics/SVG/1.1/DTD/svg11.dtd">
<svg version="1.1" xmlns="http://www.w3.org/2000/svg" xmlns:xlink="http://www.w3.org/1999/xlink" width="3300" height="2200">
 <!--glyph: "uni10074B.medium", point size: 100.0, font version: "17.3d3e1", template writer version: "65.1"-->
 <style>.hierarchical-0:primary {fill:#212121}
.hierarchical-1:secondary {fill:#4D4D4D}

.SFSymbolsPreview212121 {fill:#212121;opacity:1.0}
.SFSymbolsPreview4D4D4D {fill:#4D4D4D;opacity:1.0}
</style>
 <g id="Notes">
  <rect height="2200" id="artboard" style="fill:white;opacity:1" width="3300" x="0" y="0"/>
  <line style="fill:none;stroke:black;opacity:1;stroke-width:0.5;" x1="263" x2="3036" y1="292" y2="292"/>
  <text style="stroke:none;fill:black;font-family:sans-serif;font-size:13;font-weight:bold;" transform="matrix(1 0 0 1 263 322)">Weight/Scale Variations</text>
  <text style="stroke:none;fill:black;font-family:sans-serif;font-size:13;text-anchor:middle;" transform="matrix(1 0 0 1 559.711 322)">Ultralight</text>
  <text style="stroke:none;fill:black;font-family:sans-serif;font-size:13;text-anchor:middle;" transform="matrix(1 0 0 1 856.422 322)">Thin</text>
  <text style="stroke:none;fill:black;font-family:sans-serif;font-size:13;text-anchor:middle;" transform="matrix(1 0 0 1 1153.13 322)">Light</text>
  <text style="stroke:none;fill:black;font-family:sans-serif;font-size:13;text-anchor:middle;" transform="matrix(1 0 0 1 1449.84 322)">Regular</text>
  <text style="stroke:none;fill:black;font-family:sans-serif;font-size:13;text-anchor:middle;" transform="matrix(1 0 0 1 1746.56 322)">Medium</text>
  <text style="stroke:none;fill:black;font-family:sans-serif;font-size:13;text-anchor:middle;" transform="matrix(1 0 0 1 2043.27 322)">Semibold</text>
  <text style="stroke:none;fill:black;font-family:sans-serif;font-size:13;text-anchor:middle;" transform="matrix(1 0 0 1 2339.98 322)">Bold</text>
  <text style="stroke:none;fill:black;font-family:sans-serif;font-size:13;text-anchor:middle;" transform="matrix(1 0 0 1 2636.69 322)">Heavy</text>
  <text style="stroke:none;fill:black;font-family:sans-serif;font-size:13;text-anchor:middle;" transform="matrix(1 0 0 1 2933.4 322)">Black</text>
  <line style="fill:none;stroke:black;opacity:1;stroke-width:0.5;" x1="263" x2="3036" y1="1903" y2="1903"/>
  <g transform="matrix(1 0 0 1 263 1933)">
   <path d="M9.24805 0.830078Q10.8691 0.830078 12.2949 0.214844Q13.7207-0.400391 14.8096-1.49414Q15.8984-2.58789 16.5186-4.01367Q17.1387-5.43945 17.1387-7.05078Q17.1387-8.66211 16.5186-10.0879Q15.8984-11.5137 14.8047-12.6074Q13.7109-13.7012 12.2852-14.3164Q10.8594-14.9316 9.23828-14.9316Q7.62695-14.9316 6.20117-14.3164Q4.77539-13.7012 3.69141-12.6074Q2.60742-11.5137 1.9873-10.0879Q1.36719-8.66211 1.36719-7.05078Q1.36719-5.43945 1.9873-4.01367Q2.60742-2.58789 3.69629-1.49414Q4.78516-0.400391 6.21094 0.214844Q7.63672 0.830078 9.24805 0.830078ZM9.24805-0.654297Q7.91992-0.654297 6.7627-1.14746Q5.60547-1.64062 4.73145-2.51953Q3.85742-3.39844 3.36426-4.56055Q2.87109-5.72266 2.87109-7.05078Q2.87109-8.37891 3.35938-9.54102Q3.84766-10.7031 4.72168-11.582Q5.5957-12.4609 6.75293-12.9541Q7.91016-13.4473 9.23828-13.4473Q10.5762-13.4473 11.7334-12.9541Q12.8906-12.4609 13.7695-11.582Q14.6484-10.7031 15.1465-9.54102Q15.6445-8.37891 15.6445-7.05078Q15.6445-5.72266 15.1514-4.56055Q14.6582-3.39844 13.7842-2.51953Q12.9102-1.64062 11.748-1.14746Q10.5859-0.654297 9.24805-0.654297ZM5.6543-7.05078Q5.6543-6.72852 5.85938-6.52832Q6.06445-6.32812 6.40625-6.32812L8.51562-6.32812L8.51562-4.20898Q8.51562-3.88672 8.71094-3.67676Q8.90625-3.4668 9.23828-3.4668Q9.56055-3.4668 9.77051-3.67676Q9.98047-3.88672 9.98047-4.20898L9.98047-6.32812L12.0898-6.32812Q12.4219-6.32812 12.627-6.52832Q12.832-6.72852 12.832-7.05078Q12.832-7.38281 12.627-7.58789Q12.4219-7.79297 12.0898-7.79297L9.98047-7.79297L9.98047-9.90234Q9.98047-10.2344 9.77051-10.4443Q9.56055-10.6543 9.23828-10.6543Q8.90625-10.6543 8.71094-10.4443Q8.51562-10.2344 8.51562-9.90234L8.51562-7.79297L6.40625-7.79297Q6.06445-7.79297 5.85938-7.58789Q5.6543-7.38281 5.6543-7.05078Z"/>
  </g>
  <g transform="matrix(1 0 0 1 281.867 1933)">
   <path d="M11.709 2.91016Q13.75 2.91016 15.5518 2.12891Q17.3535 1.34766 18.7305-0.0292969Q20.1074-1.40625 20.8887-3.20801Q21.6699-5.00977 21.6699-7.05078Q21.6699-9.0918 20.8887-10.8936Q20.1074-12.6953 18.7305-14.0723Q17.3535-15.4492 15.5469-16.2305Q13.7402-17.0117 11.6992-17.0117Q9.6582-17.0117 7.85645-16.2305Q6.05469-15.4492 4.68262-14.0723Q3.31055-12.6953 2.5293-10.8936Q1.74805-9.0918 1.74805-7.05078Q1.74805-5.00977 2.5293-3.20801Q3.31055-1.40625 4.6875-0.0292969Q6.06445 1.34766 7.86621 2.12891Q9.66797 2.91016 11.709 2.91016ZM11.709 1.25Q9.98047 1.25 8.47656 0.605469Q6.97266-0.0390625 5.83496-1.17676Q4.69727-2.31445 4.05762-3.81836Q3.41797-5.32227 3.41797-7.05078Q3.41797-8.7793 4.05762-10.2832Q4.69727-11.7871 5.83008-12.9297Q6.96289-14.0723 8.4668-14.7119Q9.9707-15.3516 11.6992-15.3516Q13.4277-15.3516 14.9316-14.7119Q16.4355-14.0723 17.5781-12.9297Q18.7207-11.7871 19.3652-10.2832Q20.0098-8.7793 20.0098-7.05078Q20.0098-5.32227 19.3701-3.81836Q18.7305-2.31445 17.5928-1.17676Q16.4551-0.0390625 14.9463 0.605469Q13.4375 1.25 11.709 1.25ZM7.17773-7.05078Q7.17773-6.69922 7.41211-6.47461Q7.64648-6.25 8.01758-6.25L10.8887-6.25L10.8887-3.36914Q10.8887-2.99805 11.1133-2.76855Q11.3379-2.53906 11.6895-2.53906Q12.0605-2.53906 12.29-2.76855Q12.5195-2.99805 12.5195-3.36914L12.5195-6.25L15.4004-6.25Q15.7715-6.25 16.001-6.47461Q16.2305-6.69922 16.2305-7.05078Q16.2305-7.42188 16.001-7.65137Q15.7715-7.88086 15.4004-7.88086L12.5195-7.88086L12.5195-10.752Q12.5195-11.1328 12.29-11.3623Q12.0605-11.5918 11.6895-11.5918Q11.3379-11.5918 11.1133-11.3574Q10.8887-11.123 10.8887-10.752L10.8887-7.88086L8.01758-7.88086Q7.63672-7.88086 7.40723-7.65137Q7.17773-7.42188 7.17773-7.05078Z"/>
  </g>
  <g transform="matrix(1 0 0 1 305.646 1933)">
   <path d="M14.9707 5.66406Q17.0605 5.66406 18.96 5.01465Q20.8594 4.36523 22.4512 3.19336Q24.043 2.02148 25.2197 0.429688Q26.3965-1.16211 27.0459-3.06641Q27.6953-4.9707 27.6953-7.05078Q27.6953-9.14062 27.0459-11.04Q26.3965-12.9395 25.2197-14.5312Q24.043-16.123 22.4512-17.2998Q20.8594-18.4766 18.9551-19.126Q17.0508-19.7754 14.9609-19.7754Q12.8711-19.7754 10.9717-19.126Q9.07227-18.4766 7.48535-17.2998Q5.89844-16.123 4.72168-14.5312Q3.54492-12.9395 2.90039-11.04Q2.25586-9.14062 2.25586-7.05078Q2.25586-4.9707 2.90527-3.06641Q3.55469-1.16211 4.72656 0.429688Q5.89844 2.02148 7.49023 3.19336Q9.08203 4.36523 10.9814 5.01465Q12.8809 5.66406 14.9707 5.66406ZM14.9707 3.84766Q13.1641 3.84766 11.5283 3.2959Q9.89258 2.74414 8.53516 1.74805Q7.17773 0.751953 6.17676-0.610352Q5.17578-1.97266 4.62891-3.6084Q4.08203-5.24414 4.08203-7.05078Q4.08203-8.86719 4.62891-10.5029Q5.17578-12.1387 6.17188-13.501Q7.16797-14.8633 8.52539-15.8594Q9.88281-16.8555 11.5186-17.4023Q13.1543-17.9492 14.9609-17.9492Q16.7773-17.9492 18.4131-17.4023Q20.0488-16.8555 21.4111-15.8594Q22.7734-14.8633 23.7695-13.501Q24.7656-12.1387 25.3174-10.5029Q25.8691-8.86719 25.8691-7.05078Q25.8789-5.24414 25.332-3.6084Q24.7852-1.97266 23.7842-0.610352Q22.7832 0.751953 21.4209 1.74805Q20.0586 2.74414 18.4229 3.2959Q16.7871 3.84766 14.9707 3.84766ZM9.19922-7.05078Q9.19922-6.66992 9.45801-6.4209Q9.7168-6.17188 10.1172-6.17188L14.0625-6.17188L14.0625-2.2168Q14.0625-1.81641 14.3115-1.55762Q14.5605-1.29883 14.9512-1.29883Q15.3516-1.29883 15.6104-1.55273Q15.8691-1.80664 15.8691-2.2168L15.8691-6.17188L19.8242-6.17188Q20.2246-6.17188 20.4785-6.4209Q20.7324-6.66992 20.7324-7.05078Q20.7324-7.46094 20.4785-7.71484Q20.2246-7.96875 19.8242-7.96875L15.8691-7.96875L15.8691-11.9141Q15.8691-12.3242 15.6104-12.583Q15.3516-12.8418 14.9512-12.8418Q14.5605-12.8418 14.3115-12.583Q14.0625-12.3242 14.0625-11.9141L14.0625-7.96875L10.1172-7.96875Q9.70703-7.96875 9.45312-7.71484Q9.19922-7.46094 9.19922-7.05078Z"/>
  </g>
  <text style="stroke:none;fill:black;font-family:sans-serif;font-size:13;font-weight:bold;" transform="matrix(1 0 0 1 263 1953)">Design Variations</text>
  <text style="stroke:none;fill:black;font-family:sans-serif;font-size:13;" transform="matrix(1 0 0 1 263 1971)">Symbols are supported in up to nine weights and three scales.</text>
  <text style="stroke:none;fill:black;font-family:sans-serif;font-size:13;" transform="matrix(1 0 0 1 263 1989)">For optimal layout with text and other symbols, vertically align</text>
  <text style="stroke:none;fill:black;font-family:sans-serif;font-size:13;" transform="matrix(1 0 0 1 263 2007)">symbols with the adjacent text.</text>
  <line style="fill:none;stroke:#00AEEF;stroke-width:0.5;opacity:1.0;" x1="776" x2="776" y1="1919" y2="1933"/>
  <g transform="matrix(1 0 0 1 776 1933)">
   <path d="M3.31055 0.15625Q3.70117 0.15625 3.91602-0.00976562Q4.13086-0.175781 4.26758-0.585938L5.52734-4.0332L11.2891-4.0332L12.5488-0.585938Q12.6855-0.175781 12.9004-0.00976562Q13.1152 0.15625 13.4961 0.15625Q13.8867 0.15625 14.1162-0.0585938Q14.3457-0.273438 14.3457-0.644531Q14.3457-0.869141 14.2383-1.17188L9.6582-13.3691Q9.48242-13.8184 9.17969-14.043Q8.87695-14.2676 8.4082-14.2676Q7.5-14.2676 7.17773-13.3789L2.59766-1.16211Q2.49023-0.859375 2.49023-0.634766Q2.49023-0.263672 2.70996-0.0537109Q2.92969 0.15625 3.31055 0.15625ZM6.00586-5.51758L8.37891-12.0898L8.42773-12.0898L10.8008-5.51758Z"/>
  </g>
  <line style="fill:none;stroke:#00AEEF;stroke-width:0.5;opacity:1.0;" x1="793.197" x2="793.197" y1="1919" y2="1933"/>
  <text style="stroke:none;fill:black;font-family:sans-serif;font-size:13;font-weight:bold;" transform="matrix(1 0 0 1 776 1953)">Margins</text>
  <text style="stroke:none;fill:black;font-family:sans-serif;font-size:13;" transform="matrix(1 0 0 1 776 1971)">Leading and trailing margins on the left and right side of each symbol</text>
  <text style="stroke:none;fill:black;font-family:sans-serif;font-size:13;" transform="matrix(1 0 0 1 776 1989)">can be adjusted by modifying the x-location of the margin guidelines.</text>
  <text style="stroke:none;fill:black;font-family:sans-serif;font-size:13;" transform="matrix(1 0 0 1 776 2007)">Modifications are automatically applied proportionally to all</text>
  <text style="stroke:none;fill:black;font-family:sans-serif;font-size:13;" transform="matrix(1 0 0 1 776 2025)">scales and weights.</text>
  <g transform="matrix(1 0 0 1 1289 1933)">
   <path d="M2.8418 1.86523L4.54102 3.57422Q5.18555 4.22852 5.90332 4.17969Q6.62109 4.13086 7.31445 3.35938L18.0078-8.42773L17.041-9.4043L6.42578 2.27539Q6.16211 2.57812 5.89355 2.61719Q5.625 2.65625 5.27344 2.30469L4.10156 1.14258Q3.75 0.791016 3.79395 0.522461Q3.83789 0.253906 4.14062-0.0195312L15.6152-10.8203L14.6387-11.7871L3.04688-0.898438Q2.30469-0.214844 2.25098 0.498047Q2.19727 1.21094 2.8418 1.86523ZM9.25781-16.3281Q8.94531-16.0254 8.90625-15.6348Q8.86719-15.2441 9.04297-14.9512Q9.21875-14.6777 9.55566-14.541Q9.89258-14.4043 10.3809-14.5215Q11.4746-14.7754 12.5977-14.7314Q13.7207-14.6875 14.7949-13.9844L14.209-12.5293Q13.9551-11.9043 14.0674-11.4404Q14.1797-10.9766 14.5801-10.5664L16.875-8.25195Q17.2363-7.88086 17.5781-7.82227Q17.9199-7.76367 18.3398-7.8418L19.4043-8.03711L20.0684-7.36328L20.0293-6.80664Q20-6.43555 20.1221-6.12305Q20.2441-5.81055 20.6055-5.44922L21.3672-4.70703Q21.7285-4.3457 22.1533-4.33105Q22.5781-4.31641 22.9297-4.66797L25.8398-7.58789Q26.1914-7.93945 26.1816-8.35449Q26.1719-8.76953 25.8105-9.13086L25.0391-9.89258Q24.6875-10.2539 24.3799-10.3857Q24.0723-10.5176 23.7109-10.4883L23.1348-10.4395L22.4902-11.0742L22.7344-12.1973Q22.832-12.6172 22.6953-12.9834Q22.5586-13.3496 22.1191-13.7891L19.9219-15.9766Q18.6719-17.2168 17.2607-17.8369Q15.8496-18.457 14.4189-18.4814Q12.9883-18.5059 11.665-17.959Q10.3418-17.4121 9.25781-16.3281ZM10.752-15.957Q11.6602-16.6211 12.7002-16.9043Q13.7402-17.1875 14.8047-17.085Q15.8691-16.9824 16.8701-16.5137Q17.8711-16.0449 18.7012-15.2051L21.1328-12.793Q21.3086-12.6172 21.3525-12.4512Q21.3965-12.2852 21.3379-12.0312L21.0156-10.5469L22.5195-9.0625L23.5059-9.12109Q23.6914-9.13086 23.7891-9.09668Q23.8867-9.0625 24.0332-8.91602L24.6094-8.33984L22.168-5.89844L21.5918-6.47461Q21.4453-6.62109 21.4062-6.71875Q21.3672-6.81641 21.377-7.01172L21.4453-7.98828L19.9512-9.47266L18.4277-9.21875Q18.1836-9.16992 18.042-9.2041Q17.9004-9.23828 17.7148-9.41406L15.7129-11.416Q15.5176-11.5918 15.4932-11.7529Q15.4688-11.9141 15.5859-12.1875L16.4648-14.2773Q15.293-15.3711 13.8281-15.791Q12.3633-16.2109 10.8398-15.7617Q10.7227-15.7324 10.6885-15.8057Q10.6543-15.8789 10.752-15.957Z"/>
  </g>
  <text style="stroke:none;fill:black;font-family:sans-serif;font-size:13;font-weight:bold;" transform="matrix(1 0 0 1 1289 1953)">Exporting</text>
  <text style="stroke:none;fill:black;font-family:sans-serif;font-size:13;" transform="matrix(1 0 0 1 1289 1971)">Symbols should be outlined when exporting to ensure the</text>
  <text style="stroke:none;fill:black;font-family:sans-serif;font-size:13;" transform="matrix(1 0 0 1 1289 1989)">design is preserved when submitting to Xcode.</text>
  <text id="template-version" style="stroke:none;fill:black;font-family:sans-serif;font-size:13;text-anchor:end;" transform="matrix(1 0 0 1 3036 1933)">Template v.3.0</text>
  <text style="stroke:none;fill:black;font-family:sans-serif;font-size:13;text-anchor:end;" transform="matrix(1 0 0 1 3036 1951)">Requires Xcode 13 or greater</text>
  <text id="descriptive-name" style="stroke:none;fill:black;font-family:sans-serif;font-size:13;text-anchor:end;" transform="matrix(1 0 0 1 3036 1969)">Generated from person.3.fill</text>
  <text style="stroke:none;fill:black;font-family:sans-serif;font-size:13;text-anchor:end;" transform="matrix(1 0 0 1 3036 1987)">Typeset at 100 points</text>
  <text style="stroke:none;fill:black;font-family:sans-serif;font-size:13;" transform="matrix(1 0 0 1 263 726)">Small</text>
  <text style="stroke:none;fill:black;font-family:sans-serif;font-size:13;" transform="matrix(1 0 0 1 263 1156)">Medium</text>
  <text style="stroke:none;fill:black;font-family:sans-serif;font-size:13;" transform="matrix(1 0 0 1 263 1586)">Large</text>
 </g>
 <g id="Guides">
  <g id="H-reference" style="fill:#27AAE1;stroke:none;" transform="matrix(1 0 0 1 339 696)">
   <path d="M0.993347 0L3.6377 0L29.3282-67.1326L30.0301-67.1326L30.0301-70.459L28.1227-70.459ZM11.6882-24.4797L46.9818-24.4797L46.2311-26.7288L12.4382-26.7288ZM55.1193 0L57.7637 0L30.6381-70.459L29.4327-70.459L29.4327-67.1326Z"/>
  </g>
  <line id="Baseline-S" style="fill:none;stroke:#27AAE1;opacity:1;stroke-width:0.5;" x1="263" x2="3036" y1="696" y2="696"/>
  <line id="Capline-S" style="fill:none;stroke:#27AAE1;opacity:1;stroke-width:0.5;" x1="263" x2="3036" y1="625.541" y2="625.541"/>
  <g id="H-reference" style="fill:#27AAE1;stroke:none;" transform="matrix(1 0 0 1 339 1126)">
   <path d="M0.993347 0L3.6377 0L29.3282-67.1326L30.0301-67.1326L30.0301-70.459L28.1227-70.459ZM11.6882-24.4797L46.9818-24.4797L46.2311-26.7288L12.4382-26.7288ZM55.1193 0L57.7637 0L30.6381-70.459L29.4327-70.459L29.4327-67.1326Z"/>
  </g>
  <line id="Baseline-M" style="fill:none;stroke:#27AAE1;opacity:1;stroke-width:0.5;" x1="263" x2="3036" y1="1126" y2="1126"/>
  <line id="Capline-M" style="fill:none;stroke:#27AAE1;opacity:1;stroke-width:0.5;" x1="263" x2="3036" y1="1055.54" y2="1055.54"/>
  <g id="H-reference" style="fill:#27AAE1;stroke:none;" transform="matrix(1 0 0 1 339 1556)">
   <path d="M0.993347 0L3.6377 0L29.3282-67.1326L30.0301-67.1326L30.0301-70.459L28.1227-70.459ZM11.6882-24.4797L46.9818-24.4797L46.2311-26.7288L12.4382-26.7288ZM55.1193 0L57.7637 0L30.6381-70.459L29.4327-70.459L29.4327-67.1326Z"/>
  </g>
  <line id="Baseline-L" style="fill:none;stroke:#27AAE1;opacity:1;stroke-width:0.5;" x1="263" x2="3036" y1="1556" y2="1556"/>
  <line id="Capline-L" style="fill:none;stroke:#27AAE1;opacity:1;stroke-width:0.5;" x1="263" x2="3036" y1="1485.54" y2="1485.54"/>
  <line id="left-margin-Ultralight-S" style="fill:none;stroke:#00AEEF;stroke-width:0.5;opacity:1.0;" x1="478.23" x2="478.23" y1="600.785" y2="720.121"/>
  <line id="right-margin-Ultralight-S" style="fill:none;stroke:#00AEEF;stroke-width:0.5;opacity:1.0;" x1="641.192" x2="641.192" y1="600.785" y2="720.121"/>
  <line id="left-margin-Regular-S" style="fill:none;stroke:#00AEEF;stroke-width:0.5;opacity:1.0;" x1="1367.89" x2="1367.89" y1="600.785" y2="720.121"/>
  <line id="right-margin-Regular-S" style="fill:none;stroke:#00AEEF;stroke-width:0.5;opacity:1.0;" x1="1531.8" x2="1531.8" y1="600.785" y2="720.121"/>
  <line id="left-margin-Black-S" style="fill:none;stroke:#00AEEF;stroke-width:0.5;opacity:1.0;" x1="2849.88" x2="2849.88" y1="600.785" y2="720.121"/>
  <line id="right-margin-Black-S" style="fill:none;stroke:#00AEEF;stroke-width:0.5;opacity:1.0;" x1="3016.92" x2="3016.92" y1="600.785" y2="720.121"/>
 </g>
 <g id="Symbols">
  <g id="Black-S" transform="matrix(1 0 0 1 2849.88 696)">
   <path class="hierarchical-0:primary SFSymbolsPreview212121" d="M60.5469 0.927734L106.543 0.927734Q112.207 0.927734 114.355-1.00098Q116.504-2.92969 116.504-6.15234Q116.504-9.76562 114.16-13.7451Q111.816-17.7246 107.471-21.1914Q103.125-24.6582 97.0459-26.8066Q90.9668-28.9551 83.5449-28.9551Q76.123-28.9551 70.0439-26.8066Q63.9648-24.6582 59.6191-21.1914Q55.2734-17.7246 52.9297-13.7451Q50.5859-9.76562 50.5859-6.15234Q50.5859-2.92969 52.7344-1.00098Q54.8828 0.927734 60.5469 0.927734ZM83.5449-35.4492Q88.0859-35.4492 91.7236-37.793Q95.3613-40.1367 97.4854-44.0918Q99.6094-48.0469 99.6094-52.8809Q99.6094-57.4707 97.4609-61.377Q95.3125-65.2832 91.6748-67.6758Q88.0371-70.0684 83.5449-70.0684Q79.0527-70.0684 75.3906-67.6758Q71.7285-65.2832 69.6045-61.377Q67.4805-57.4707 67.4805-52.8809Q67.5293-48.0469 69.6289-44.0918Q71.7285-40.1367 75.3662-37.793Q79.0039-35.4492 83.5449-35.4492Z"/>
   <path class="hierarchical-1:secondary SFSymbolsPreview4D4D4D" d="M18.4082 0.976562L45.3613 0.976562Q43.6523-1.31836 43.2861-4.46777Q42.9199-7.61719 43.9209-11.1572Q44.9219-14.6973 47.3633-18.3105Q49.8047-21.9238 53.7109-25.1953Q50.7812-26.8066 46.8018-27.9053Q42.8223-29.0039 38.4277-29.0039Q32.3242-29.0039 27.0996-27.0264Q21.875-25.0488 17.9932-21.8506Q14.1113-18.6523 11.9385-14.917Q9.76562-11.1816 9.76562-7.66602Q9.76562-3.66211 11.6211-1.34277Q13.4766 0.976562 18.4082 0.976562ZM148.486 0.976562Q153.418 0.976562 155.273-1.34277Q157.129-3.66211 157.129-7.66602Q157.129-11.1816 154.956-14.917Q152.783-18.6523 148.901-21.8506Q145.02-25.0488 139.795-27.0264Q134.57-29.0039 128.467-29.0039Q124.072-29.0039 120.093-27.9053Q116.113-26.8066 113.184-25.1953Q117.09-21.9238 119.531-18.3105Q121.973-14.6973 122.974-11.1572Q123.975-7.61719 123.608-4.46777Q123.242-1.31836 121.533 0.976562ZM38.4277-34.6191Q42.3828-34.6191 45.5566-36.6699Q48.7305-38.7207 50.5859-42.1631Q52.4414-45.6055 52.4414-49.8047Q52.4414-53.8086 50.5615-57.2266Q48.6816-60.6445 45.5078-62.7197Q42.334-64.7949 38.4277-64.7949Q34.5215-64.7949 31.3477-62.7197Q28.1738-60.6445 26.3184-57.2266Q24.4629-53.8086 24.4629-49.8047Q24.5117-45.6055 26.3428-42.1631Q28.1738-38.7207 31.3232-36.6699Q34.4727-34.6191 38.4277-34.6191ZM128.467-34.6191Q132.422-34.6191 135.571-36.6699Q138.721-38.7207 140.576-42.1631Q142.432-45.6055 142.432-49.8047Q142.48-53.8086 140.601-57.2266Q138.721-60.6445 135.547-62.7197Q132.373-64.7949 128.467-64.7949Q124.561-64.7949 121.387-62.7197Q118.213-60.6445 116.333-57.2266Q114.453-53.8086 114.453-49.8047Q114.453-45.6055 116.309-42.1631Q118.164-38.7207 121.338-36.6699Q124.512-34.6191 128.467-34.6191Z"/>
  </g>
  <g id="Regular-S" transform="matrix(1 0 0 1 1367.89 696)">
   <path class="hierarchical-0:primary SFSymbolsPreview212121" d="M58.3496-0.0488281L105.566-0.0488281Q110.449-0.0488281 112.354-1.3916Q114.258-2.73438 114.258-5.27344Q114.258-8.98438 112.012-13.0859Q109.766-17.1875 105.566-20.7764Q101.367-24.3652 95.3857-26.6113Q89.4043-28.8574 81.9336-28.8574Q74.4629-28.8574 68.5059-26.6113Q62.5488-24.3652 58.3496-20.7764Q54.1504-17.1875 51.9043-13.0859Q49.6582-8.98438 49.6582-5.27344Q49.6582-2.73438 51.5381-1.3916Q53.418-0.0488281 58.3496-0.0488281ZM81.9336-35.6934Q86.0352-35.6934 89.5508-37.9395Q93.0664-40.1855 95.2148-44.043Q97.3633-47.9004 97.3633-52.6855Q97.3633-57.4707 95.2148-61.2061Q93.0664-64.9414 89.5508-67.0654Q86.0352-69.1895 81.9336-69.1895Q77.8809-69.1895 74.3652-67.0166Q70.8496-64.8438 68.7012-61.084Q66.5527-57.3242 66.5527-52.5879Q66.5527-47.8516 68.7012-44.0186Q70.8496-40.1855 74.3652-37.9395Q77.8809-35.6934 81.9336-35.6934Z"/>
   <path class="hierarchical-1:secondary SFSymbolsPreview4D4D4D" d="M16.8945-0.0488281L44.873-0.0488281Q43.4082-2.49023 43.5547-5.68848Q43.7012-8.88672 45.1416-12.3047Q46.582-15.7227 48.999-18.8721Q51.416-22.0215 54.4434-24.3164Q51.2207-26.3184 47.1436-27.6367Q43.0664-28.9551 37.8906-28.9551Q31.3965-28.9551 26.1963-26.8066Q20.9961-24.6582 17.334-21.1914Q13.6719-17.7246 11.7188-13.623Q9.76562-9.52148 9.76562-5.56641Q9.76562-2.97852 11.377-1.51367Q12.9883-0.0488281 16.8945-0.0488281ZM147.021-0.0488281Q150.928-0.0488281 152.515-1.51367Q154.102-2.97852 154.102-5.56641Q154.102-9.52148 152.173-13.623Q150.244-17.7246 146.558-21.1914Q142.871-24.6582 137.671-26.8066Q132.471-28.9551 125.977-28.9551Q120.801-28.9551 116.724-27.6367Q112.646-26.3184 109.424-24.3164Q112.5-22.0215 114.917-18.8721Q117.334-15.7227 118.75-12.3047Q120.166-8.88672 120.312-5.68848Q120.459-2.49023 118.994-0.0488281ZM37.8906-34.8145Q41.4551-34.8145 44.5068-36.7676Q47.5586-38.7207 49.4385-42.0898Q51.3184-45.459 51.3184-49.6094Q51.3184-53.8086 49.4385-57.0312Q47.5586-60.2539 44.5068-62.1094Q41.4551-63.9648 37.8906-63.9648Q34.375-63.9648 31.2988-62.085Q28.2227-60.2051 26.3428-56.9336Q24.4629-53.6621 24.4629-49.5117Q24.4629-45.4102 26.3428-42.0654Q28.2227-38.7207 31.2988-36.7676Q34.375-34.8145 37.8906-34.8145ZM125.977-34.8145Q129.541-34.8145 132.593-36.7676Q135.645-38.7207 137.524-42.0654Q139.404-45.4102 139.404-49.5117Q139.404-53.6621 137.524-56.9336Q135.645-60.2051 132.593-62.085Q129.541-63.9648 125.977-63.9648Q122.412-63.9648 119.36-62.1094Q116.309-60.2539 114.453-57.0312Q112.598-53.8086 112.598-49.6094Q112.598-45.459 114.453-42.0898Q116.309-38.7207 119.36-36.7676Q122.412-34.8145 125.977-34.8145Z"/>
  </g>
  <g id="Ultralight-S" transform="matrix(1 0 0 1 478.23 696)">
   <path class="hierarchical-0:primary SFSymbolsPreview212121" d="M55.5176-0.927734L107.227-0.927734Q110.059-0.927734 111.572-1.9043Q113.086-2.88086 113.086-5.32227Q113.086-8.98438 110.913-13.0127Q108.74-17.041 104.565-20.5566Q100.391-24.0723 94.5557-26.2939Q88.7207-28.5156 81.3965-28.5156Q74.0723-28.5156 68.1885-26.2939Q62.3047-24.0723 58.1787-20.5566Q54.0527-17.041 51.8555-13.0127Q49.6582-8.98438 49.6582-5.32227Q49.6582-2.88086 51.1719-1.9043Q52.6855-0.927734 55.5176-0.927734ZM81.4941-35.3516Q85.6934-35.3516 89.0381-37.5488Q92.3828-39.7461 94.3359-43.4814Q96.2891-47.2168 96.2891-51.9043Q96.2891-56.2988 94.3115-59.9609Q92.334-63.623 88.9648-65.8447Q85.5957-68.0664 81.4941-68.0664Q77.3438-68.0664 73.9502-65.8691Q70.5566-63.6719 68.5791-59.9854Q66.6016-56.2988 66.6504-51.9043Q66.6504-47.2168 68.6035-43.4814Q70.5566-39.7461 73.9258-37.5488Q77.2949-35.3516 81.4941-35.3516Z"/>
   <path class="hierarchical-1:secondary SFSymbolsPreview4D4D4D" d="M14.6484-0.927734L48.291-0.927734Q46.7285-1.85547 46.4355-4.24805Q46.1426-6.64062 47.0703-9.81445Q47.998-12.9883 50.0977-16.3086Q52.1973-19.6289 55.4688-22.3633Q52.2949-25.0977 47.7539-26.8799Q43.2129-28.6621 37.1582-28.6621Q30.7617-28.6621 25.6592-26.6357Q20.5566-24.6094 16.9678-21.2402Q13.3789-17.8711 11.4746-13.7939Q9.57031-9.7168 9.57031-5.61523Q9.57031-3.07617 10.8887-2.00195Q12.207-0.927734 14.6484-0.927734ZM147.998-0.927734Q150.439-0.927734 151.758-2.00195Q153.076-3.07617 153.076-5.61523Q153.076-9.7168 151.172-13.7939Q149.268-17.8711 145.679-21.2402Q142.09-24.6094 136.963-26.6357Q131.836-28.6621 125.488-28.6621Q119.385-28.6621 114.844-26.8799Q110.303-25.0977 107.178-22.3633Q110.4-19.6289 112.524-16.3086Q114.648-12.9883 115.576-9.81445Q116.504-6.64062 116.235-4.24805Q115.967-1.85547 114.355-0.927734ZM37.2559-34.5215Q40.918-34.5215 43.8232-36.4258Q46.7285-38.3301 48.4375-41.5771Q50.1465-44.8242 50.1465-48.9258Q50.1465-52.7344 48.4131-55.9326Q46.6797-59.1309 43.75-61.0596Q40.8203-62.9883 37.2559-62.9883Q33.6426-62.9883 30.6885-61.0596Q27.7344-59.1309 26.0254-55.9326Q24.3164-52.7344 24.3652-48.9258Q24.3652-44.8242 26.0498-41.5771Q27.7344-38.3301 30.6641-36.4258Q33.5938-34.5215 37.2559-34.5215ZM125.391-34.5215Q129.053-34.5215 131.982-36.4258Q134.912-38.3301 136.597-41.5771Q138.281-44.8242 138.281-48.9258Q138.281-52.7344 136.548-55.9326Q134.814-59.1309 131.885-61.0596Q128.955-62.9883 125.391-62.9883Q121.777-62.9883 118.872-61.0596Q115.967-59.1309 114.233-55.9326Q112.5-52.7344 112.5-48.9258Q112.5-44.8242 114.185-41.5771Q115.869-38.3301 118.823-36.4258Q121.777-34.5215 125.391-34.5215Z"/>
  </g>
 </g>
</svg>
