<?xml version="1.0" encoding="UTF-8"?>
<!--Generator: Apple Native CoreSVG 175.5-->
<!DOCTYPE svg
PUBLIC "-//W3C//DTD SVG 1.1//EN"
       "http://www.w3.org/Graphics/SVG/1.1/DTD/svg11.dtd">
<svg version="1.1" xmlns="http://www.w3.org/2000/svg" xmlns:xlink="http://www.w3.org/1999/xlink" width="37.7969" height="32.2031">
 <g>
  <rect height="32.2031" opacity="0" width="37.7969" x="0" y="0"/>
  <path d="M21.8594 32.0312C30.5625 32.0312 37.7969 24.7969 37.7969 16.0938C37.7969 7.375 30.5469 0.15625 21.8438 0.15625C13.7031 0.15625 6.90625 6.42188 6.03125 14.3438C6.79688 14.2031 7.90625 14.1406 8.73438 14.2344C9.59375 7.75 15.0938 2.8125 21.8438 2.8125C29.2031 2.8125 35.1406 8.71875 35.1406 16.0938C35.1406 19.5312 33.8594 22.6562 31.7188 24.9844C30.1875 23.1562 26.5625 21.4062 21.8438 21.4062C20.3438 21.4062 18.9688 21.5938 17.7344 21.8906C17.9219 22.6406 18.0156 23.4531 18.0156 24.25C18.0156 26.6875 17.125 28.9531 15.625 30.7188C17.5469 31.5625 19.6562 32.0312 21.8594 32.0312ZM21.8438 18.75C24.8438 18.7812 27.2031 16.2188 27.2031 12.8594C27.2031 9.70312 24.8281 7.09375 21.8438 7.09375C18.8438 7.09375 16.4531 9.70312 16.4844 12.8594C16.5 16.2031 18.8438 18.7188 21.8438 18.75ZM7.9375 32.2031C12.2344 32.2031 15.875 28.6094 15.875 24.2656C15.875 19.9062 12.2969 16.3281 7.9375 16.3281C3.59375 16.3281 0 19.9219 0 24.2656C0 28.6406 3.59375 32.2031 7.9375 32.2031ZM6.98438 28.5469C6.73438 28.5469 6.40625 28.4375 6.20312 28.2188L3.5625 25.3125C3.375 25.1094 3.29688 24.8281 3.29688 24.6094C3.29688 24.0469 3.73438 23.625 4.28125 23.625C4.60938 23.625 4.85938 23.7812 5.03125 23.9531L6.95312 26.0312L10.75 20.75C10.9375 20.4844 11.2188 20.3125 11.5781 20.3125C12.1094 20.3125 12.5625 20.7344 12.5625 21.2812C12.5625 21.4531 12.4844 21.6719 12.3438 21.875L7.8125 28.1719C7.64062 28.4062 7.32812 28.5469 6.98438 28.5469Z" fill="#ffd400"/>
 </g>
</svg>
