<?xml version="1.0" encoding="UTF-8"?>
<!--Generator: Apple Native CoreSVG 175.5-->
<!DOCTYPE svg
PUBLIC "-//W3C//DTD SVG 1.1//EN"
       "http://www.w3.org/Graphics/SVG/1.1/DTD/svg11.dtd">
<svg version="1.1" xmlns="http://www.w3.org/2000/svg" xmlns:xlink="http://www.w3.org/1999/xlink" width="37.8438" height="34.6719">
 <g>
  <rect height="34.6719" opacity="0" width="37.8438" x="0" y="0"/>
  <path d="M4.90625 31.7344L21.1719 31.7344C20.7188 30.9531 20.375 30.1094 20.1562 29.2188L4.67188 29.2188C3.28125 29.2188 2.51562 28.4844 2.51562 27.0312L2.51562 12.2969C2.51562 10.8594 3.28125 10.1094 4.67188 10.1094L26.4531 10.1094C27.8438 10.1094 28.625 10.8594 28.625 12.2969L28.625 16.7344C29.0781 16.6875 29.4844 16.6562 29.9062 16.6562C30.3125 16.6562 30.7344 16.6875 31.1406 16.7344L31.1406 7.8125C31.1406 4.59375 29.5156 2.96875 26.25 2.96875L4.90625 2.96875C1.64062 2.96875 0 4.57812 0 7.8125L0 26.8906C0 30.125 1.64062 31.7344 4.90625 31.7344ZM12.5156 15.7188L13.4375 15.7188C13.9844 15.7188 14.1719 15.5625 14.1719 15.0156L14.1719 14.0938C14.1719 13.5469 13.9844 13.375 13.4375 13.375L12.5156 13.375C11.9688 13.375 11.7812 13.5469 11.7812 14.0938L11.7812 15.0156C11.7812 15.5625 11.9688 15.7188 12.5156 15.7188ZM17.7188 15.7188L18.625 15.7188C19.1719 15.7188 19.3594 15.5625 19.3594 15.0156L19.3594 14.0938C19.3594 13.5469 19.1719 13.375 18.625 13.375L17.7188 13.375C17.1562 13.375 16.9844 13.5469 16.9844 14.0938L16.9844 15.0156C16.9844 15.5625 17.1562 15.7188 17.7188 15.7188ZM22.9062 15.7188L23.8281 15.7188C24.375 15.7188 24.5469 15.5625 24.5469 15.0156L24.5469 14.0938C24.5469 13.5469 24.375 13.375 23.8281 13.375L22.9062 13.375C22.3594 13.375 22.1719 13.5469 22.1719 14.0938L22.1719 15.0156C22.1719 15.5625 22.3594 15.7188 22.9062 15.7188ZM7.32812 20.8281L8.25 20.8281C8.79688 20.8281 8.96875 20.6719 8.96875 20.125L8.96875 19.2031C8.96875 18.6562 8.79688 18.5 8.25 18.5L7.32812 18.5C6.78125 18.5 6.59375 18.6562 6.59375 19.2031L6.59375 20.125C6.59375 20.6719 6.78125 20.8281 7.32812 20.8281ZM12.5156 20.8281L13.4375 20.8281C13.9844 20.8281 14.1719 20.6719 14.1719 20.125L14.1719 19.2031C14.1719 18.6562 13.9844 18.5 13.4375 18.5L12.5156 18.5C11.9688 18.5 11.7812 18.6562 11.7812 19.2031L11.7812 20.125C11.7812 20.6719 11.9688 20.8281 12.5156 20.8281ZM17.7188 20.8281L18.625 20.8281C19.1719 20.8281 19.3594 20.6719 19.3594 20.125L19.3594 19.2031C19.3594 18.6562 19.1719 18.5 18.625 18.5L17.7188 18.5C17.1562 18.5 16.9844 18.6562 16.9844 19.2031L16.9844 20.125C16.9844 20.6719 17.1562 20.8281 17.7188 20.8281ZM7.32812 25.9531L8.25 25.9531C8.79688 25.9531 8.96875 25.7812 8.96875 25.2344L8.96875 24.3125C8.96875 23.7656 8.79688 23.6094 8.25 23.6094L7.32812 23.6094C6.78125 23.6094 6.59375 23.7656 6.59375 24.3125L6.59375 25.2344C6.59375 25.7812 6.78125 25.9531 7.32812 25.9531ZM12.5156 25.9531L13.4375 25.9531C13.9844 25.9531 14.1719 25.7812 14.1719 25.2344L14.1719 24.3125C14.1719 23.7656 13.9844 23.6094 13.4375 23.6094L12.5156 23.6094C11.9688 23.6094 11.7812 23.7656 11.7812 24.3125L11.7812 25.2344C11.7812 25.7812 11.9688 25.9531 12.5156 25.9531ZM17.7188 25.9531L18.625 25.9531C19.1719 25.9531 19.3594 25.7812 19.3594 25.2344L19.3594 24.3125C19.3594 23.7656 19.1719 23.6094 18.625 23.6094L17.7188 23.6094C17.1562 23.6094 16.9844 23.7656 16.9844 24.3125L16.9844 25.2344C16.9844 25.7812 17.1562 25.9531 17.7188 25.9531ZM29.9062 34.6719C34.2031 34.6719 37.8438 31.0781 37.8438 26.7344C37.8438 22.375 34.25 18.7969 29.9062 18.7969C25.5469 18.7969 21.9688 22.3906 21.9688 26.7344C21.9688 31.1094 25.5469 34.6719 29.9062 34.6719ZM26.2031 27.9531C25.6562 27.9531 25.2188 27.5156 25.2188 26.9844C25.2188 26.4688 25.6719 26.0312 26.2031 26.0312L29.0156 26.0312L29.0156 22.1094C29.0156 21.5938 29.4531 21.1719 29.9844 21.1719C30.5156 21.1719 30.9531 21.5938 30.9531 22.1094L30.9531 26.9844C30.9531 27.5312 30.5312 27.9531 29.9844 27.9531Z" fill="#ffd400"/>
 </g>
</svg>
